<?xml version="1.0" encoding="UTF-8" standalone="no"?>
<svg
   xmlns:dc="http://purl.org/dc/elements/1.1/"
   xmlns:cc="http://creativecommons.org/ns#"
   xmlns:rdf="http://www.w3.org/1999/02/22-rdf-syntax-ns#"
   xmlns:svg="http://www.w3.org/2000/svg"
   xmlns="http://www.w3.org/2000/svg"
   xmlns:sodipodi="http://sodipodi.sourceforge.net/DTD/sodipodi-0.dtd"
   xmlns:inkscape="http://www.inkscape.org/namespaces/inkscape"
   viewBox="10563.699 26 161.267 30"
   version="1.1"
   id="svg7"
   sodipodi:docname="logo.svg"
   inkscape:version="1.0.2 (e86c870879, 2021-01-15, custom)">
  <metadata
     id="metadata11">
    <rdf:RDF>
      <cc:Work
         rdf:about="">
        <dc:format>image/svg+xml</dc:format>
        <dc:type
           rdf:resource="http://purl.org/dc/dcmitype/StillImage" />
      </cc:Work>
    </rdf:RDF>
  </metadata>
  <sodipodi:namedview
     pagecolor="#ffffff"
     bordercolor="#666666"
     borderopacity="1"
     objecttolerance="10"
     gridtolerance="10"
     guidetolerance="10"
     inkscape:pageopacity="0"
     inkscape:pageshadow="2"
     inkscape:window-width="2560"
     inkscape:window-height="1377"
     id="namedview9"
     showgrid="false"
     inkscape:zoom="11.313709"
     inkscape:cx="85.89487"
     inkscape:cy="17.027137"
     inkscape:window-x="1912"
     inkscape:window-y="-8"
     inkscape:window-maximized="1"
     inkscape:current-layer="svg7"
     inkscape:document-rotation="0" />
  <defs
     id="defs4">
    <style
       id="style2">.cls-1{fill:#447a1c}</style>
  </defs>
  <path
     id="Path_1396"
     data-name="Path 1396"
     class="cls-1"
     d="M95.871 14.016v15.577h-9.5V13.541c0-3.394-.2-5.8-3.02-5.8-.781 0-1.9.2-2.681 2.1a10.213 10.213 0 0 0-.441 3.8v15.986h-9.5V13.133c0-1.663 0-3.733-1.018-4.751a2.5 2.5 0 0 0-1.867-.645c-2.206 0-3.258 1.867-3.258 5.667v16.189h-9.5V7.771c0-.305-.034-1.527-.068-2.851-.034-1.493-.1-3.02-.1-3.462V1.12h9.4v.339l.068 3.19A8.114 8.114 0 0 1 71.742.441a7.421 7.421 0 0 1 7.195 4.615A8.921 8.921 0 0 1 86.878.373a8.69 8.69 0 0 1 7.738 4.514c1.256 2.477 1.256 5.871 1.256 9.129m49.174-6.38c3.326-.577 9.2-1.7 12.828-2.681C155.124 1.867 150.781 0 144.672 0c-5.226 0-9.808 1.493-12.76 4.615-.916 2.172 2.545 7.534 5.633 11.64a7.526 7.526 0 0 1-.1-1.256 7.394 7.394 0 0 1 7.4-7.4c.034.034.1.034.2.034m-16.391 7.059c0 4.14 1.188 8.314 4.14 11.233 2.206 2.172 5.43 3.835 10.588 4.038 2-.781 4.344-5.023 6.176-9.061a7.3 7.3 0 0 1-4.378 1.459 7.421 7.421 0 0 1-6.855-4.615c-2.342-2.749-6.007-7.025-8.484-9.4a16.035 16.035 0 0 0-1.188 6.346m21.753 5.09c-1.12 3.156-2.511 7.229-3.258 10.079 4.581-.441 7.772-1.833 10.045-4.038 3.292-3.122 4.072-7.33 4.072-10.792a16.813 16.813 0 0 0-1.154-6.38c-1.731-1.731-8.213-1.324-13.235-.713A7.371 7.371 0 0 1 152.138 15a7.2 7.2 0 0 1-1.731 4.785m-95.973-2.443c0-4.989-.339-7.67-1.6-10.113C50.939 3.224 47.24 0 39.333 0 28.88 0 24.265 6.143 24.265 15.645c0 9.367 5.294 14.355 15.2 14.355 7.33 0 14.016-2.783 14.8-9.876h-9.876c-.271 2.647-2.036 4.14-4.853 4.14-5.43 0-5.43-5.362-5.43-6.889h20.328zm-20.226-5.77c.1-1.357.509-5.939 5.158-5.939s4.989 4.31 5.09 5.939zm93.9 5.769c0-4.989-.339-7.67-1.6-10.113-1.9-4-5.566-7.229-13.473-7.229C102.59 0 96.516 6.143 96.516 15.645c0 9.367 6.753 14.355 16.629 14.355 7.33 0 14.016-2.783 14.8-9.876h-9.876c-.271 2.647-2.036 4.14-4.853 4.14-5.43 0-5.43-5.362-5.43-6.889h20.328zm-20.226-5.769c.1-1.357.509-5.939 5.124-5.939 4.649 0 4.989 4.31 5.09 5.939zm-82.5 17.613l-.271.373h-8.55l-.271-.2a36.334 36.334 0 0 1-.882-5.667l-.1-.814v-.034c-.339-3.394-.441-4.412-3.733-4.412H8.552v10.86l-.305.305H.305L0 29.287V.713L.305.407h13.2c5.16.034 7.195.34 8.995 2.172a7.672 7.672 0 0 1 2.07 5.735c0 3.394-1.459 4.751-2.749 5.532a10 10 0 0 1-2.885 1.222c4.208.611 4.581 3.122 5.158 7.025v.1l.068.577a43.725 43.725 0 0 0 1.222 6.414M8.518 12.692H11.2a11.915 11.915 0 0 0 3.19-.2 3.063 3.063 0 0 0 1.9-2.992c0-3.224-2.817-3.224-5.09-3.224H8.518z"
     transform="translate(10563.699 26)"
     style="fill:#ffffff" />
</svg>
